Coordinates
version=1
nRows=16
nColumns=28
inDegrees=yes

Units are S.I. units (second, meters, Newtons, ...)
Angles are in degrees.

endheader
time	pelvis_tilt	pelvis_list	pelvis_rotation	pelvis_tx	pelvis_ty	pelvis_tz	hip_flexion_r	hip_adduction_r	hip_rotation_r	knee_angle_r	ankle_angle_r	subtalar_angle_r	mtp_angle_r	hip_flexion_l	hip_adduction_l	hip_rotation_l	knee_angle_l	socket_flexion	socket_adduction	socket_rotation	socket_tx	socket_ty	socket_tz	foot_flex	lumbar_extension	lumbar_bending	lumbar_rotation
      0.31250000	      7.38883924	     -0.44426863	    -11.07900543	     -0.33706853	      1.03173918	      0.31966791	     11.93167175	     -0.81647840	      1.97015894	    -65.60611213	      2.38741630	    -11.78024358	     22.23839218	     -5.43474960	      3.65214215	      5.22394343	     -6.13144327	      0.00000000	      0.00000000	      0.00000000	      0.00000000	      0.00000000	      0.00000000	      0.92754810	    -18.26702829	     -4.75150787	     11.95488528
      0.31666667	      7.42902230	     -0.45106207	    -11.00014600	     -0.33235824	      1.03197875	      0.31940361	     12.46881552	     -0.71485185	      1.92129040	    -65.27135398	      2.47513695	    -11.75588008	     22.25164465	     -5.77761727	      3.71093645	      5.25290342	     -6.10482773	      0.00000000	      0.00000000	      0.00000000	      0.00000000	      0.00000000	      0.00000000	      0.99139992	    -18.38029680	     -4.74414234	     11.92674775
      0.32083333	      7.63070368	     -0.73020154	    -10.59644746	     -0.32710659	      1.03266781	      0.31870009	     12.55796551	     -0.45846734	      1.47432391	    -64.64930571	      3.26617766	    -10.88913264	     22.35531569	     -6.43961934	      3.47223586	      5.69893400	     -5.93226140	      0.00000000	      0.00000000	      0.00000000	      0.00000000	      0.00000000	      0.00000000	      1.13297478	    -18.67223286	     -4.28952832	     11.26023306
      0.32500000	      7.64988030	     -0.76694260	    -10.51042021	     -0.32210716	      1.03286555	      0.31854702	     13.03357909	     -0.31814062	      1.41235624	    -64.19152855	      3.47769082	    -10.87291074	     22.37373442	     -6.83709778	      3.48162904	      5.77996330	     -5.80357962	      0.00000000	      0.00000000	      0.00000000	      0.00000000	      0.00000000	      0.00000000	      1.25269075	    -18.70234588	     -4.24389457	     11.20955985
      0.32916667	      7.67652540	     -0.76256826	    -10.44917617	     -0.31750300	      1.03300674	      0.31838511	     13.56597438	     -0.23336428	      1.35916123	    -63.76414791	      3.56184980	    -10.86687350	     22.37998265	     -7.16093344	      3.53908434	      5.80452685	     -5.76872897	      0.00000000	      0.00000000	      0.00000000	      0.00000000	      0.00000000	      0.00000000	      1.31702555	    -18.82679536	     -4.25195309	     11.18971396
      0.33333333	      7.69420718	     -1.05289201	    -10.15962300	     -0.31217392	      1.03344744	      0.31800669	     13.80313234	      0.15320769	      1.08622992	    -62.99859862	      4.17076401	    -10.61692734	     22.43174429	     -7.64620783	      3.24304546	      6.10514007	     -5.57767344	      0.00000000	      0.00000000	      0.00000000	      0.00000000	      0.00000000	      0.00000000	      1.45928749	    -18.86317242	     -3.82603313	     10.90015046
      0.33750000	      7.87294329	     -1.21717235	     -9.86898993	     -0.30724655	      1.03392672	      0.31749510	     13.97576974	      0.30580391	      0.74355020	    -62.30685212	      4.45529338	    -10.32845165	     22.33804662	     -8.21941107	      3.11764750	      6.39976709	     -5.44985704	      0.00000000	      0.00000000	      0.00000000	      0.00000000	      0.00000000	      0.00000000	      1.58546163	    -19.14376037	     -3.58064293	     10.51007165
      0.34166667	      7.89484651	     -1.18692902	     -9.82332799	     -0.30265723	      1.03393474	      0.31737262	     14.48598669	      0.35197679	      0.69409412	    -61.79572502	      4.52076697	    -10.33351635	     22.33327462	     -8.53850830	      3.20036535	      6.41775971	     -5.40189214	      0.00000000	      0.00000000	      0.00000000	      0.00000000	      0.00000000	      0.00000000	      1.65870415	    -19.26022209	     -3.62230709	     10.49229567
      0.34583333	      8.01216054	     -1.44412961	     -9.47240503	     -0.29741823	      1.03443678	      0.31690242	     14.57789903	      0.63673646	      0.32532792	    -60.89588304	      4.90841458	    -10.18346929	     22.17644267	     -9.10522417	      2.94156530	      6.76284857	     -5.22698892	      0.00000000	      0.00000000	      0.00000000	      0.00000000	      0.00000000	      0.00000000	      1.82483817	    -19.40554021	     -3.24059398	     10.12305069
      0.35000000	      8.02138585	     -1.43844003	     -9.38867630	     -0.29257661	      1.03448170	      0.31683094	     14.99692576	      0.71138977	      0.23870525	    -60.21982306	      5.06832330	    -10.20335343	     22.15068612	     -9.46919969	      2.97839990	      6.82803405	     -5.10755199	      0.00000000	      0.00000000	      0.00000000	      0.00000000	      0.00000000	      0.00000000	      1.90424636	    -19.44638679	     -3.25694799	     10.07135374
      0.35416667	      8.23058024	     -1.68252635	     -9.02395094	     -0.28768975	      1.03501594	      0.31630753	     15.01592884	      0.94624931	     -0.17216335	    -59.30314788	      5.36351763	    -10.18296432	     21.72384079	    -10.07857091	      2.74048018	      7.16368799	     -4.98035472	      0.00000000	      0.00000000	      0.00000000	      0.00000000	      0.00000000	      0.00000000	      2.01313551	    -19.77017273	     -2.89870228	      9.63839589
      0.35833333	      8.18722221	     -1.77753567	     -8.85631223	     -0.28276376	      1.03504692	      0.31613025	     15.38520209	      1.13204581	     -0.33309744	    -58.47138359	      5.64621678	    -10.23404948	     21.61948081	    -10.40549448	      2.64153192	      7.29457643	     -4.84742485	      0.00000000	      0.00000000	      0.00000000	      0.00000000	      0.00000000	      0.00000000	      2.11716442	    -19.76555784	     -2.74973491	      9.59745291
      0.36250000	      8.18287292	     -1.73967384	     -8.79565648	     -0.27797716	      1.03500304	      0.31610180	     15.78622254	      1.16676866	     -0.42079430	    -57.69045675	      5.73980759	    -10.26574364	     21.57724130	    -10.73247501	      2.71320553	      7.34187454	     -4.76665325	      0.00000000	      0.00000000	      0.00000000	      0.00000000	      0.00000000	      0.00000000	      2.23875610	    -19.79399969	     -2.80802171	      9.55443530
      0.36666667	      8.15962699	     -1.93940378	     -8.51037017	     -0.27298777	      1.03515019	      0.31570345	     16.02272300	      1.41206763	     -0.74629827	    -56.68310442	      5.99954136	    -10.41852637	     21.39553330	    -11.08967892	      2.48715718	      7.60836465	     -4.65299814	      0.00000000	      0.00000000	      0.00000000	      0.00000000	      0.00000000	      0.00000000	      2.35206165	    -19.82313936	     -2.50408620	      9.37103215
      0.37083333	      8.15836952	     -1.87766643	     -8.44234718	     -0.26828139	      1.03504691	      0.31571589	     16.39458447	      1.42225918	     -0.83800092	    -55.83290840	      6.08294429	    -10.46750495	     21.34207063	    -11.40962160	      2.57573816	      7.64106437	     -4.57263344	      0.00000000	      0.00000000	      0.00000000	      0.00000000	      0.00000000	      0.00000000	      2.47273489	    -19.85995238	     -2.58294484	      9.31451058
      0.37500000	      8.37412039	     -2.17634157	     -8.03371484	     -0.26347768	      1.03556299	      0.31513522	     16.29486083	      1.71024286	     -1.30263224	    -54.70245107	      6.57878378	    -10.65794959	     19.14583135	    -12.02218981	      2.25086740	      8.00608217	     -4.44931809	      0.00000000	      0.00000000	      0.00000000	      0.00000000	      0.00000000	      0.00000000	      2.58405435	    -20.22186948	     -2.14464479	      8.86356584
